<?xml version="1.0" encoding="UTF-8" standalone="no"?>
<svg
     xmlns:svg="http://www.w3.org/2000/svg"
     xmlns="http://www.w3.org/2000/svg"
     version="1.1"
     width="2110"
     height="610"
     viewBox="0 0 2110 610"
     id="Layer_1"
     xml:space="preserve">
     <defs id="defs112" />
	<g transform="translate(320,20)" style="stroke-linecap :butt;" >
		<polygon style="fill:#000000; stroke :none;" points="-4,-5 0,-5 0,450 -4,450" /> 
		<path transform="translate(-66,0)" style="fill:#000000;" d="M 15.0,423.9 H 51.4 C 59.6,423.9 66.0,430.5 66.0,438.6 V 455.8 C 66.0,463.9 55.0,469.1 49.3,470.5 43.7,471.9 42.3,474.6 42.4,478.0 L 44.9,545.0 C 45.1,549.3 49.4,553.5 53.6,554.3 L 94.2,563.5 C 97.2,564.1 100.0,567.3 100.0,570.2 V 579.7  H -33.6 V 569.4 C -33.6,566.8 -31.0,564.1 -28.4,563.6 L 13.3,554.3 C 17.5,553.4 21.3,548.7 21.5,544.5 L 24.0,478.0 C 24.0,474.6 22.6,471.9 17.0,470.5 11.4,469.1 0.0,463.9 0.0,455.9 V 438.6 C 0.0,430.5 6.8,423.9 15.0,423.9 z" />
		<g>
			<polygon transform="translate(600,-5)" points="0,400 4,400 4,450 0,450" style="fill:#000000; stroke:none;" />
			<path id="gauge_600"   transform="translate(600,0)"  style="fill:#E5C4A1; stroke:none;" d="M 15.0,423.9 H 51.4 C 59.6,423.9 66.0,430.5 66.0,438.6 V 455.8 C 66.0,463.9 55.0,469.1 49.3,470.5 43.7,471.9 42.3,474.6 42.4,478.0 L 44.9,545.0 C 45.1,549.3 49.4,553.5 53.6,554.3 L 94.2,563.5 C 97.2,564.1 100.0,567.3 100.0,570.2 V 579.7  H -33.6 V 569.4 C -33.6,566.8 -31.0,564.1 -28.4,563.6 L 13.3,554.3 C 17.5,553.4 21.3,548.7 21.5,544.5 L 24.0,478.0 C 24.0,474.6 22.6,471.9 17.0,470.5 11.4,469.1 0.0,463.9 0.0,455.9 V 438.6 C 0.0,430.5 6.8,423.9 15.0,423.9 z" />
			<polyline style="fill:none;stroke:#E5C4A1;stroke-width:10;"  points="0,400 600,400" />
		</g>
		<g >
			<polygon transform="translate(762,-5)" points="0,360 4,360 4,450 0,450" style="fill:#000000; stroke:none;" />
			<path  id="gauge_762"  transform="translate(762,0)"  style="fill:#E65000;" d="M 15.0,423.9 H 51.4 C 59.6,423.9 66.0,430.5 66.0,438.6 V 455.8 C 66.0,463.9 55.0,469.1 49.3,470.5 43.7,471.9 42.3,474.6 42.4,478.0 L 44.9,545.0 C 45.1,549.3 49.4,553.5 53.6,554.3 L 94.2,563.5 C 97.2,564.1 100.0,567.3 100.0,570.2 V 579.7  H -33.6 V 569.4 C -33.6,566.8 -31.0,564.1 -28.4,563.6 L 13.3,554.3 C 17.5,553.4 21.3,548.7 21.5,544.5 L 24.0,478.0 C 24.0,474.6 22.6,471.9 17.0,470.5 11.4,469.1 0.0,463.9 0.0,455.9 V 438.6 C 0.0,430.5 6.8,423.9 15.0,423.9 z" />
			<polyline style="fill:none;stroke:#E65000;stroke-width:10;"  points="0,360 762,360" />
		</g>
		<g >
			<polygon transform="translate(914,-5)" points="0,320 4,320 4,450 0,450" style="fill:#000000; stroke:none;" />
			<path  id="gauge_914"  transform="translate(914,0)"  style="fill:#E1392F;" d="M 15.0,423.9 H 51.4 C 59.6,423.9 66.0,430.5 66.0,438.6 V 455.8 C 66.0,463.9 55.0,469.1 49.3,470.5 43.7,471.9 42.3,474.6 42.4,478.0 L 44.9,545.0 C 45.1,549.3 49.4,553.5 53.6,554.3 L 94.2,563.5 C 97.2,564.1 100.0,567.3 100.0,570.2 V 579.7  H -33.6 V 569.4 C -33.6,566.8 -31.0,564.1 -28.4,563.6 L 13.3,554.3 C 17.5,553.4 21.3,548.7 21.5,544.5 L 24.0,478.0 C 24.0,474.6 22.6,471.9 17.0,470.5 11.4,469.1 0.0,463.9 0.0,455.9 V 438.6 C 0.0,430.5 6.8,423.9 15.0,423.9 z" />
			<polyline style="fill:none;stroke:#E1392F;stroke-width:10;"  points="0,320 914,320" />
		</g>
		<g >
			<polygon transform="translate(1000,-5)" points="0,280 4,280 4,450 0,450" style="fill:#000000; stroke:none;" />
			<path  id="gauge_1000"  transform="translate(1000,0)"  style="fill:#C55E8D;" d="M 15.0,423.9 H 51.4 C 59.6,423.9 66.0,430.5 66.0,438.6 V 455.8 C 66.0,463.9 55.0,469.1 49.3,470.5 43.7,471.9 42.3,474.6 42.4,478.0 L 44.9,545.0 C 45.1,549.3 49.4,553.5 53.6,554.3 L 94.2,563.5 C 97.2,564.1 100.0,567.3 100.0,570.2 V 579.7  H -33.6 V 569.4 C -33.6,566.8 -31.0,564.1 -28.4,563.6 L 13.3,554.3 C 17.5,553.4 21.3,548.7 21.5,544.5 L 24.0,478.0 C 24.0,474.6 22.6,471.9 17.0,470.5 11.4,469.1 0.0,463.9 0.0,455.9 V 438.6 C 0.0,430.5 6.8,423.9 15.0,423.9 z" />
			<polyline style="fill:none;stroke:#C55E8D;stroke-width:10;"  points="0,280 1000,280" />
		</g>
		<g >
			<polygon transform="translate(1067,-5)" points="0,240 4,240 4,450 0,450" style="fill:#000000; stroke:none;" />
			<path  id="gauge_1067"  transform="translate(1067,0)"  style="fill:#6A51B7;" d="M 15.0,423.9 H 51.4 C 59.6,423.9 66.0,430.5 66.0,438.6 V 455.8 C 66.0,463.9 55.0,469.1 49.3,470.5 43.7,471.9 42.3,474.6 42.4,478.0 L 44.9,545.0 C 45.1,549.3 49.4,553.5 53.6,554.3 L 94.2,563.5 C 97.2,564.1 100.0,567.3 100.0,570.2 V 579.7  H -33.6 V 569.4 C -33.6,566.8 -31.0,564.1 -28.4,563.6 L 13.3,554.3 C 17.5,553.4 21.3,548.7 21.5,544.5 L 24.0,478.0 C 24.0,474.6 22.6,471.9 17.0,470.5 11.4,469.1 0.0,463.9 0.0,455.9 V 438.6 C 0.0,430.5 6.8,423.9 15.0,423.9 z" />
			<polyline style="fill:none;stroke:#6A51B7;stroke-width:10;"  points="0,240 1067,240" />
		</g>
		<g >
			<polygon transform="translate(1372,-5)" points="0,200 4,200 4,450 0,450" style="fill:#000000; stroke:none;" />
			<path  id="gauge_1372"  transform="translate(1372,0)"  style="fill:#3E3D97;" d="M 15.0,423.9 H 51.4 C 59.6,423.9 66.0,430.5 66.0,438.6 V 455.8 C 66.0,463.9 55.0,469.1 49.3,470.5 43.7,471.9 42.3,474.6 42.4,478.0 L 44.9,545.0 C 45.1,549.3 49.4,553.5 53.6,554.3 L 94.2,563.5 C 97.2,564.1 100.0,567.3 100.0,570.2 V 579.7  H -33.6 V 569.4 C -33.6,566.8 -31.0,564.1 -28.4,563.6 L 13.3,554.3 C 17.5,553.4 21.3,548.7 21.5,544.5 L 24.0,478.0 C 24.0,474.6 22.6,471.9 17.0,470.5 11.4,469.1 0.0,463.9 0.0,455.9 V 438.6 C 0.0,430.5 6.8,423.9 15.0,423.9 z" />
			<polyline style="fill:none;stroke:#3E3D97;stroke-width:10;"  points="0,200 1372,200" />
		</g>
		<g >
			<polygon transform="translate(1435,-7)" points="0,160 4,160 4,450 0,450" style="fill:#000000; stroke:none;" />
			<path  id="gauge_1435"  transform="translate(1435,0)"  style="fill:#568DD0;" d="M 15.0,423.9 H 51.4 C 59.6,423.9 66.0,430.5 66.0,438.6 V 455.8 C 66.0,463.9 55.0,469.1 49.3,470.5 43.7,471.9 42.3,474.6 42.4,478.0 L 44.9,545.0 C 45.1,549.3 49.4,553.5 53.6,554.3 L 94.2,563.5 C 97.2,564.1 100.0,567.3 100.0,570.2 V 579.7  H -33.6 V 569.4 C -33.6,566.8 -31.0,564.1 -28.4,563.6 L 13.3,554.3 C 17.5,553.4 21.3,548.7 21.5,544.5 L 24.0,478.0 C 24.0,474.6 22.6,471.9 17.0,470.5 11.4,469.1 0.0,463.9 0.0,455.9 V 438.6 C 0.0,430.5 6.8,423.9 15.0,423.9 z" />
			<polyline style="fill:none;stroke:#568DD0;stroke-width:14;"  points="0,160 1435,160" />
		</g>
		<g >
			<polygon transform="translate(1520,-5)" points="0,120 4,120 4,450 0,450" style="fill:#000000; stroke:none;" />
			<path  id="gauge_1520"  transform="translate(1520,0)"  style="fill:#305C31;" d="M 15.0,423.9 H 51.4 C 59.6,423.9 66.0,430.5 66.0,438.6 V 455.8 C 66.0,463.9 55.0,469.1 49.3,470.5 43.7,471.9 42.3,474.6 42.4,478.0 L 44.9,545.0 C 45.1,549.3 49.4,553.5 53.6,554.3 L 94.2,563.5 C 97.2,564.1 100.0,567.3 100.0,570.2 V 579.7  H -33.6 V 569.4 C -33.6,566.8 -31.0,564.1 -28.4,563.6 L 13.3,554.3 C 17.5,553.4 21.3,548.7 21.5,544.5 L 24.0,478.0 C 24.0,474.6 22.6,471.9 17.0,470.5 11.4,469.1 0.0,463.9 0.0,455.9 V 438.6 C 0.0,430.5 6.8,423.9 15.0,423.9 z" />
			<polyline style="fill:none;stroke:#305C31;stroke-width:10;"  points="0,120 1520,120" />
		</g>
		<g >
			<polygon transform="translate(1600,-5)" points="0,80 4,80 4,450 0,450" style="fill:#000000; stroke:none;" />
			<path  id="gauge_1600"  transform="translate(1600,0)"  style="fill:#5ABF56;" d="M 15.0,423.9 H 51.4 C 59.6,423.9 66.0,430.5 66.0,438.6 V 455.8 C 66.0,463.9 55.0,469.1 49.3,470.5 43.7,471.9 42.3,474.6 42.4,478.0 L 44.9,545.0 C 45.1,549.3 49.4,553.5 53.6,554.3 L 94.2,563.5 C 97.2,564.1 100.0,567.3 100.0,570.2 V 579.7  H -33.6 V 569.4 C -33.6,566.8 -31.0,564.1 -28.4,563.6 L 13.3,554.3 C 17.5,553.4 21.3,548.7 21.5,544.5 L 24.0,478.0 C 24.0,474.6 22.6,471.9 17.0,470.5 11.4,469.1 0.0,463.9 0.0,455.9 V 438.6 C 0.0,430.5 6.8,423.9 15.0,423.9 z" />
			<polyline style="fill:none;stroke:#5ABF56;stroke-width:10;"  points="0,80 1600,80" />
		</g>
		<g >
			<polygon transform="translate(1668,-5)" points="0,40 4,40 4,450 0,450" style="fill:#000000; stroke:none;" />
			<path  id="gauge_1668"  transform="translate(1668,0)"  style="fill:#83DC76;" d="M 15.0,423.9 H 51.4 C 59.6,423.9 66.0,430.5 66.0,438.6 V 455.8 C 66.0,463.9 55.0,469.1 49.3,470.5 43.7,471.9 42.3,474.6 42.4,478.0 L 44.9,545.0 C 45.1,549.3 49.4,553.5 53.6,554.3 L 94.2,563.5 C 97.2,564.1 100.0,567.3 100.0,570.2 V 579.7  H -33.6 V 569.4 C -33.6,566.8 -31.0,564.1 -28.4,563.6 L 13.3,554.3 C 17.5,553.4 21.3,548.7 21.5,544.5 L 24.0,478.0 C 24.0,474.6 22.6,471.9 17.0,470.5 11.4,469.1 0.0,463.9 0.0,455.9 V 438.6 C 0.0,430.5 6.8,423.9 15.0,423.9 z" />
			<polyline style="fill:none;stroke:#83DC76;stroke-width:10;"  points="0,40 1668,40" />
		</g>
		<g >
			<polygon transform="translate(1676,-5)" points="0,0 4,0 4,450 0,450" style="fill:#000000; stroke:none;" />
			<path  id="gauge_1676"  transform="translate(1676,0)"  style="fill:#BBDF94;" d="M 15.0,423.9 H 51.4 C 59.6,423.9 66.0,430.5 66.0,438.6 V 455.8 C 66.0,463.9 55.0,469.1 49.3,470.5 43.7,471.9 42.3,474.6 42.4,478.0 L 44.9,545.0 C 45.1,549.3 49.4,553.5 53.6,554.3 L 94.2,563.5 C 97.2,564.1 100.0,567.3 100.0,570.2 V 579.7  H -33.6 V 569.4 C -33.6,566.8 -31.0,564.1 -28.4,563.6 L 13.3,554.3 C 17.5,553.4 21.3,548.7 21.5,544.5 L 24.0,478.0 C 24.0,474.6 22.6,471.9 17.0,470.5 11.4,469.1 0.0,463.9 0.0,455.9 V 438.6 C 0.0,430.5 6.8,423.9 15.0,423.9 z" />
			<polyline style="fill:none;stroke:#BBDF94;stroke-width:10;"  points="0,0 1676,0" />
		</g>
	</g>
	<text transform="translate(5,30)" style="font-size :36; font-family :'Courier New', monospace"><!--
		--><tspan x="0" y="0"   id="label_1676"  >1676 mm 5’6&quot;</tspan><!--
		--><tspan x="0" y="40"  id="label_1668"  >1668 mm 5’5&#8532;&quot;</tspan><!--
		--><tspan x="0" y="80"  id="label_1600"  >1600 mm 5’3&quot;</tspan><!--
		--><tspan x="0" y="120" id="label_1520">1520 mm 4’11&#8538;&quot;</tspan><!--
		--><tspan x="0" y="160" id="label_1435">1435 mm 4’8&#189;&quot;</tspan><!--
		--><tspan x="0" y="200" id="label_1372">1372 mm 4’6&quot;</tspan><!--
		--><tspan x="0" y="240" id="label_1067">1067 mm 3’6&quot;</tspan><!--
		--><tspan x="0" y="280" id="label_1000">1000 mm 3’3&#8540;&quot;</tspan><!--
		--><tspan x="0" y="320" id="label_914"> 914 mm 3’</tspan><!--
		--><tspan x="0" y="360" id="label_762"> 762 mm 2’6&quot;</tspan><!--
		--><tspan x="0" y="400" id="label_600"> 600 mm 1’11&#8541;&quot;</tspan><!--
	--></text>
</svg>